<svg id="visual" viewBox="0 0 900 600" width="900" height="600" xmlns="http://www.w3.org/2000/svg" xmlns:xlink="http://www.w3.org/1999/xlink" version="1.1"><rect x="0" y="0" width="900" height="600" fill="#101010"></rect><defs><linearGradient id="grad1_0" x1="33.3%" y1="0%" x2="100%" y2="100%"><stop offset="20%" stop-color="#fa8072" stop-opacity="1"></stop><stop offset="80%" stop-color="#fa8072" stop-opacity="1"></stop></linearGradient></defs><defs><linearGradient id="grad1_1" x1="33.3%" y1="0%" x2="100%" y2="100%"><stop offset="20%" stop-color="#fa8072" stop-opacity="1"></stop><stop offset="80%" stop-color="#d56f63" stop-opacity="1"></stop></linearGradient></defs><defs><linearGradient id="grad1_2" x1="33.3%" y1="0%" x2="100%" y2="100%"><stop offset="20%" stop-color="#b05e54" stop-opacity="1"></stop><stop offset="80%" stop-color="#d56f63" stop-opacity="1"></stop></linearGradient></defs><defs><linearGradient id="grad1_3" x1="33.3%" y1="0%" x2="100%" y2="100%"><stop offset="20%" stop-color="#b05e54" stop-opacity="1"></stop><stop offset="80%" stop-color="#8d4e45" stop-opacity="1"></stop></linearGradient></defs><defs><linearGradient id="grad1_4" x1="33.3%" y1="0%" x2="100%" y2="100%"><stop offset="20%" stop-color="#6c3e38" stop-opacity="1"></stop><stop offset="80%" stop-color="#8d4e45" stop-opacity="1"></stop></linearGradient></defs><defs><linearGradient id="grad1_5" x1="33.3%" y1="0%" x2="100%" y2="100%"><stop offset="20%" stop-color="#6c3e38" stop-opacity="1"></stop><stop offset="80%" stop-color="#4c2e2a" stop-opacity="1"></stop></linearGradient></defs><defs><linearGradient id="grad1_6" x1="33.3%" y1="0%" x2="100%" y2="100%"><stop offset="20%" stop-color="#2e1f1d" stop-opacity="1"></stop><stop offset="80%" stop-color="#4c2e2a" stop-opacity="1"></stop></linearGradient></defs><defs><linearGradient id="grad1_7" x1="33.3%" y1="0%" x2="100%" y2="100%"><stop offset="20%" stop-color="#2e1f1d" stop-opacity="1"></stop><stop offset="80%" stop-color="#101010" stop-opacity="1"></stop></linearGradient></defs><defs><linearGradient id="grad2_0" x1="0%" y1="0%" x2="66.7%" y2="100%"><stop offset="20%" stop-color="#fa8072" stop-opacity="1"></stop><stop offset="80%" stop-color="#fa8072" stop-opacity="1"></stop></linearGradient></defs><defs><linearGradient id="grad2_1" x1="0%" y1="0%" x2="66.7%" y2="100%"><stop offset="20%" stop-color="#d56f63" stop-opacity="1"></stop><stop offset="80%" stop-color="#fa8072" stop-opacity="1"></stop></linearGradient></defs><defs><linearGradient id="grad2_2" x1="0%" y1="0%" x2="66.7%" y2="100%"><stop offset="20%" stop-color="#d56f63" stop-opacity="1"></stop><stop offset="80%" stop-color="#b05e54" stop-opacity="1"></stop></linearGradient></defs><defs><linearGradient id="grad2_3" x1="0%" y1="0%" x2="66.7%" y2="100%"><stop offset="20%" stop-color="#8d4e45" stop-opacity="1"></stop><stop offset="80%" stop-color="#b05e54" stop-opacity="1"></stop></linearGradient></defs><defs><linearGradient id="grad2_4" x1="0%" y1="0%" x2="66.7%" y2="100%"><stop offset="20%" stop-color="#8d4e45" stop-opacity="1"></stop><stop offset="80%" stop-color="#6c3e38" stop-opacity="1"></stop></linearGradient></defs><defs><linearGradient id="grad2_5" x1="0%" y1="0%" x2="66.7%" y2="100%"><stop offset="20%" stop-color="#4c2e2a" stop-opacity="1"></stop><stop offset="80%" stop-color="#6c3e38" stop-opacity="1"></stop></linearGradient></defs><defs><linearGradient id="grad2_6" x1="0%" y1="0%" x2="66.7%" y2="100%"><stop offset="20%" stop-color="#4c2e2a" stop-opacity="1"></stop><stop offset="80%" stop-color="#2e1f1d" stop-opacity="1"></stop></linearGradient></defs><defs><linearGradient id="grad2_7" x1="0%" y1="0%" x2="66.7%" y2="100%"><stop offset="20%" stop-color="#101010" stop-opacity="1"></stop><stop offset="80%" stop-color="#2e1f1d" stop-opacity="1"></stop></linearGradient></defs><g transform="translate(900, 0)"><path d="M0 297.5C-53.3 290.4 -106.5 283.3 -148.7 257.6C-190.9 231.9 -222.1 187.5 -245.1 141.5C-268 95.5 -282.7 47.7 -297.5 0L0 0Z" fill="#1f1817"></path><path d="M0 260.3C-46.6 254.1 -93.2 247.9 -130.1 225.4C-167.1 202.9 -194.4 164.1 -214.4 123.8C-234.5 83.5 -247.4 41.8 -260.3 0L0 0Z" fill="#3c2724"></path><path d="M0 223.1C-39.9 217.8 -79.9 212.5 -111.5 193.2C-143.2 173.9 -166.6 140.7 -183.8 106.1C-201 71.6 -212.1 35.8 -223.1 0L0 0Z" fill="#5c3631"></path><path d="M0 185.9C-33.3 181.5 -66.6 177.1 -93 161C-119.3 144.9 -138.8 117.2 -153.2 88.4C-167.5 59.7 -176.7 29.8 -185.9 0L0 0Z" fill="#7c463e"></path><path d="M0 148.7C-26.6 145.2 -53.3 141.7 -74.4 128.8C-95.5 115.9 -111.1 93.8 -122.5 70.8C-134 47.7 -141.4 23.9 -148.7 0L0 0Z" fill="#9f564d"></path><path d="M0 111.5C-20 108.9 -39.9 106.2 -55.8 96.6C-71.6 87 -83.3 70.3 -91.9 53.1C-100.5 35.8 -106 17.9 -111.5 0L0 0Z" fill="#c2665b"></path><path d="M0 74.4C-13.3 72.6 -26.6 70.8 -37.2 64.4C-47.7 58 -55.5 46.9 -61.3 35.4C-67 23.9 -70.7 11.9 -74.4 0L0 0Z" fill="#e7776a"></path><path d="M0 37.2C-6.7 36.3 -13.3 35.4 -18.6 32.2C-23.9 29 -27.8 23.4 -30.6 17.7C-33.5 11.9 -35.3 6 -37.2 0L0 0Z" fill="#fa8072"></path></g><g transform="translate(0, 600)"><path d="M0 -297.5C42.7 -274 85.3 -250.5 132 -228.6C178.7 -206.8 229.4 -186.6 257.6 -148.7C285.9 -110.9 291.7 -55.4 297.5 0L0 0Z" fill="#1f1817"></path><path d="M0 -260.3C37.3 -239.7 74.7 -219.2 115.5 -200.1C156.3 -180.9 200.7 -163.2 225.4 -130.1C250.1 -97 255.2 -48.5 260.3 0L0 0Z" fill="#3c2724"></path><path d="M0 -223.1C32 -205.5 64 -187.9 99 -171.5C134 -155.1 172 -139.9 193.2 -111.5C214.4 -83.2 218.7 -41.6 223.1 0L0 0Z" fill="#5c3631"></path><path d="M0 -185.9C26.7 -171.2 53.3 -156.6 82.5 -142.9C111.7 -129.2 143.4 -116.6 161 -93C178.7 -69.3 182.3 -34.7 185.9 0L0 0Z" fill="#7c463e"></path><path d="M0 -148.7C21.3 -137 42.7 -125.2 66 -114.3C89.3 -103.4 114.7 -93.3 128.8 -74.4C142.9 -55.4 145.8 -27.7 148.7 0L0 0Z" fill="#9f564d"></path><path d="M0 -111.5C16 -102.7 32 -93.9 49.5 -85.7C67 -77.5 86 -70 96.6 -55.8C107.2 -41.6 109.4 -20.8 111.5 0L0 0Z" fill="#c2665b"></path><path d="M0 -74.4C10.7 -68.5 21.3 -62.6 33 -57.2C44.7 -51.7 57.3 -46.6 64.4 -37.2C71.5 -27.7 72.9 -13.9 74.4 0L0 0Z" fill="#e7776a"></path><path d="M0 -37.2C5.3 -34.2 10.7 -31.3 16.5 -28.6C22.3 -25.8 28.7 -23.3 32.2 -18.6C35.7 -13.9 36.5 -6.9 37.2 0L0 0Z" fill="#fa8072"></path></g></svg>