<svg id="visual" viewBox="0 0 3840 2160" width="3840" height="2160" xmlns="http://www.w3.org/2000/svg"
    xmlns:xlink="http://www.w3.org/1999/xlink" version="1.1">

    <path
        d="M1601 2160L1608.5 2088C1616 2016 1631 1872 1615.2 1728C1599.3 1584 1552.7 1440 1491 1296C1429.3 1152 1352.7 1008 1379 864C1405.3 720 1534.7 576 1551.5 432C1568.3 288 1472.7 144 1424.8 72L1377 0L3840 0L3840 72C3840 144 3840 288 3840 432C3840 576 3840 720 3840 864C3840 1008 3840 1152 3840 1296C3840 1440 3840 1584 3840 1728C3840 1872 3840 2016 3840 2088L3840 2160Z"
        fill="#fffef5">
        <!-- <animate attributeName="d" dur="3s" repeatCount="indefinite" values="M1601 2160L1608.5 2088C1616 2016 1631 1872 1615.2 1728C1599.3 1584 1552.7 1440 1491 1296C1429.3 1152 1352.7 1008 1379 864C1405.3 720 1534.7 576 1551.5 432C1568.3 288 1472.7 144 1424.8 72L1377 0L3840 0L3840 72C3840 144 3840 288 3840 432C3840 576 3840 720 3840 864C3840 1008 3840 1152 3840 1296C3840 1440 3840 1584 3840 1728C3840 1872 3840 2016 3840 2088L3840 2160Z
        ; M1601 2160L1608.5 2088C1616 2016 1631 1872 1615.2 1728C1599.3 1584 1552.7 1440 1491 1296C1429.3 1152 1352.7 1008 1379 864C1405.3 720 1534.7 576 1551.5 432C1568.3 288 1472.7 144 1424.8 72L1377 0L3835 0L3835 72C3835 144 3835 288 3835 432C3835 576 3835 720 3835 864C3835 1008 3835 1152 3835 1296C3835 1440 3835 1584 3835 1728C3835 1872 3835 2016 3835 2088L3835 2160Z
        ; M1601 2160L1608.5 2088C1616 2016 1631 1872 1615.2 1728C1599.3 1584 1552.7 1440 1491 1296C1429.3 1152 1352.7 1008 1379 864C1405.3 720 1534.7 576 1551.5 432C1568.3 288 1472.7 144 1424.8 72L1377 0L3820 0L3820 72C3820 144 3820 288 3820 432C3820 576 3820 720 3820 864C3820 1008 3820 1152 3820 1296C3820 1440 3820 1584 3820 1728C3820 1872 3820 2016 3820 2088L3820 2160Z
        " /> -->
    </path>
    <path
        d="M1828 2160L1789.7 2088C1751.3 2016 1674.7 1872 1658 1728C1641.3 1584 1684.7 1440 1733.8 1296C1783 1152 1838 1008 1808 864C1778 720 1663 576 1640.7 432C1618.3 288 1688.7 144 1723.8 72L1759 0L3840 0L3840 72C3840 144 3840 288 3840 432C3840 576 3840 720 3840 864C3840 1008 3840 1152 3840 1296C3840 1440 3840 1584 3840 1728C3840 1872 3840 2016 3840 2088L3840 2160Z"
        fill="#f6e9d4"></path>
    <path
        d="M2095 2160L2047.5 2088C2000 2016 1905 1872 1893 1728C1881 1584 1952 1440 1959.3 1296C1966.7 1152 1910.3 1008 1920.7 864C1931 720 2008 576 2026.2 432C2044.3 288 2003.7 144 1983.3 72L1963 0L3840 0L3840 72C3840 144 3840 288 3840 432C3840 576 3840 720 3840 864C3840 1008 3840 1152 3840 1296C3840 1440 3840 1584 3840 1728C3840 1872 3840 2016 3840 2088L3840 2160Z"
        fill="#f3d1b7"></path>
    <path
        d="M2199 2160L2232.8 2088C2266.7 2016 2334.3 1872 2309.5 1728C2284.7 1584 2167.3 1440 2121.3 1296C2075.3 1152 2100.7 1008 2093.5 864C2086.3 720 2046.7 576 2040.7 432C2034.7 288 2062.3 144 2076.2 72L2090 0L3840 0L3840 72C3840 144 3840 288 3840 432C3840 576 3840 720 3840 864C3840 1008 3840 1152 3840 1296C3840 1440 3840 1584 3840 1728C3840 1872 3840 2016 3840 2088L3840 2160Z"
        fill="#f2b8a2"></path>
    <path
        d="M2477 2160L2462.3 2088C2447.7 2016 2418.3 1872 2386.7 1728C2355 1584 2321 1440 2337 1296C2353 1152 2419 1008 2477.7 864C2536.3 720 2587.7 576 2598.2 432C2608.7 288 2578.3 144 2563.2 72L2548 0L3840 0L3840 72C3840 144 3840 288 3840 432C3840 576 3840 720 3840 864C3840 1008 3840 1152 3840 1296C3840 1440 3840 1584 3840 1728C3840 1872 3840 2016 3840 2088L3840 2160Z"
        fill="#ef9d97"></path>
    <path
        d="M2759 2160L2752 2088C2745 2016 2731 1872 2734.2 1728C2737.3 1584 2757.7 1440 2775.8 1296C2794 1152 2810 1008 2806.7 864C2803.3 720 2780.7 576 2775.7 432C2770.7 288 2783.3 144 2789.7 72L2796 0L3840 0L3840 72C3840 144 3840 288 3840 432C3840 576 3840 720 3840 864C3840 1008 3840 1152 3840 1296C3840 1440 3840 1584 3840 1728C3840 1872 3840 2016 3840 2088L3840 2160Z"
        fill="#e78397"></path>
    <path
        d="M2958 2160L2968.5 2088C2979 2016 3000 1872 3007.8 1728C3015.7 1584 3010.3 1440 2995.5 1296C2980.7 1152 2956.3 1008 2945.2 864C2934 720 2936 576 2926.2 432C2916.3 288 2894.7 144 2883.8 72L2873 0L3840 0L3840 72C3840 144 3840 288 3840 432C3840 576 3840 720 3840 864C3840 1008 3840 1152 3840 1296C3840 1440 3840 1584 3840 1728C3840 1872 3840 2016 3840 2088L3840 2160Z"
        fill="#d56ba0"></path>
    <path
        d="M3166 2160L3175.3 2088C3184.7 2016 3203.3 1872 3217.5 1728C3231.7 1584 3241.3 1440 3237.2 1296C3233 1152 3215 1008 3221.5 864C3228 720 3259 576 3277.8 432C3296.7 288 3303.3 144 3306.7 72L3310 0L3840 0L3840 72C3840 144 3840 288 3840 432C3840 576 3840 720 3840 864C3840 1008 3840 1152 3840 1296C3840 1440 3840 1584 3840 1728C3840 1872 3840 2016 3840 2088L3840 2160Z"
        fill="#b65baf"></path>
    <path
        d="M3399 2160L3406.3 2088C3413.7 2016 3428.3 1872 3447.7 1728C3467 1584 3491 1440 3487.5 1296C3484 1152 3453 1008 3444.5 864C3436 720 3450 576 3460.2 432C3470.3 288 3476.7 144 3479.8 72L3483 0L3840 0L3840 72C3840 144 3840 288 3840 432C3840 576 3840 720 3840 864C3840 1008 3840 1152 3840 1296C3840 1440 3840 1584 3840 1728C3840 1872 3840 2016 3840 2088L3840 2160Z"
        fill="#8455be"></path>
</svg>