<svg id="visual" viewBox="0 0 3840 2160" width="3840" height="2160" xmlns="http://www.w3.org/2000/svg" xmlns:xlink="http://www.w3.org/1999/xlink" version="1.1"><rect x="0" y="0" width="3840" height="2160" fill="#002032"></rect><path d="M1705 2160L1724.7 2088C1744.3 2016 1783.7 1872 1856.7 1728C1929.7 1584 2036.3 1440 2086 1296C2135.7 1152 2128.3 1008 2085.3 864C2042.3 720 1963.7 576 1888.3 432C1813 288 1741 144 1705 72L1669 0L3840 0L3840 72C3840 144 3840 288 3840 432C3840 576 3840 720 3840 864C3840 1008 3840 1152 3840 1296C3840 1440 3840 1584 3840 1728C3840 1872 3840 2016 3840 2088L3840 2160Z" fill="#ffa9bb"></path><path d="M2364 2160L2311.7 2088C2259.3 2016 2154.7 1872 2165 1728C2175.3 1584 2300.7 1440 2340.3 1296C2380 1152 2334 1008 2362.8 864C2391.7 720 2495.3 576 2509.7 432C2524 288 2449 144 2411.5 72L2374 0L3840 0L3840 72C3840 144 3840 288 3840 432C3840 576 3840 720 3840 864C3840 1008 3840 1152 3840 1296C3840 1440 3840 1584 3840 1728C3840 1872 3840 2016 3840 2088L3840 2160Z" fill="#dc788c"></path><path d="M2662 2160L2691.8 2088C2721.7 2016 2781.3 1872 2811.7 1728C2842 1584 2843 1440 2844 1296C2845 1152 2846 1008 2785.2 864C2724.3 720 2601.7 576 2585.2 432C2568.7 288 2658.3 144 2703.2 72L2748 0L3840 0L3840 72C3840 144 3840 288 3840 432C3840 576 3840 720 3840 864C3840 1008 3840 1152 3840 1296C3840 1440 3840 1584 3840 1728C3840 1872 3840 2016 3840 2088L3840 2160Z" fill="#b8475f"></path><path d="M3051 2160L3033.7 2088C3016.3 2016 2981.7 1872 2975.8 1728C2970 1584 2993 1440 3030.7 1296C3068.3 1152 3120.7 1008 3142.7 864C3164.7 720 3156.3 576 3157.2 432C3158 288 3168 144 3173 72L3178 0L3840 0L3840 72C3840 144 3840 288 3840 432C3840 576 3840 720 3840 864C3840 1008 3840 1152 3840 1296C3840 1440 3840 1584 3840 1728C3840 1872 3840 2016 3840 2088L3840 2160Z" fill="#920434"></path></svg>