<svg id="visual" viewBox="0 0 900 600" width="900" height="600" xmlns="http://www.w3.org/2000/svg" xmlns:xlink="http://www.w3.org/1999/xlink" version="1.1"><rect x="0" y="0" width="900" height="600" fill="#001220"></rect><path d="M558 600L568.8 585.7C579.7 571.3 601.3 542.7 609 514.2C616.7 485.7 610.3 457.3 616.2 428.8C622 400.3 640 371.7 631.5 343C623 314.3 588 285.7 576.8 257C565.7 228.3 578.3 199.7 592.8 171.2C607.3 142.7 623.7 114.3 633.7 85.8C643.7 57.3 647.3 28.7 649.2 14.3L651 0L900 0L900 14.3C900 28.7 900 57.3 900 85.8C900 114.3 900 142.7 900 171.2C900 199.7 900 228.3 900 257C900 285.7 900 314.3 900 343C900 371.7 900 400.3 900 428.8C900 457.3 900 485.7 900 514.2C900 542.7 900 571.3 900 585.7L900 600Z" fill="#fa7268"></path><path d="M708 600L696.8 585.7C685.7 571.3 663.3 542.7 668.7 514.2C674 485.7 707 457.3 715.7 428.8C724.3 400.3 708.7 371.7 709 343C709.3 314.3 725.7 285.7 728.5 257C731.3 228.3 720.7 199.7 714 171.2C707.3 142.7 704.7 114.3 700 85.8C695.3 57.3 688.7 28.7 685.3 14.3L682 0L900 0L900 14.3C900 28.7 900 57.3 900 85.8C900 114.3 900 142.7 900 171.2C900 199.7 900 228.3 900 257C900 285.7 900 314.3 900 343C900 371.7 900 400.3 900 428.8C900 457.3 900 485.7 900 514.2C900 542.7 900 571.3 900 585.7L900 600Z" fill="#eb5967"></path><path d="M790 600L774.2 585.7C758.3 571.3 726.7 542.7 726.8 514.2C727 485.7 759 457.3 774.3 428.8C789.7 400.3 788.3 371.7 781.3 343C774.3 314.3 761.7 285.7 757.3 257C753 228.3 757 199.7 749 171.2C741 142.7 721 114.3 726.5 85.8C732 57.3 763 28.7 778.5 14.3L794 0L900 0L900 14.3C900 28.7 900 57.3 900 85.8C900 114.3 900 142.7 900 171.2C900 199.7 900 228.3 900 257C900 285.7 900 314.3 900 343C900 371.7 900 400.3 900 428.8C900 457.3 900 485.7 900 514.2C900 542.7 900 571.3 900 585.7L900 600Z" fill="#da3f67"></path><path d="M773 600L781.3 585.7C789.7 571.3 806.3 542.7 807.2 514.2C808 485.7 793 457.3 787.5 428.8C782 400.3 786 371.7 797.2 343C808.3 314.3 826.7 285.7 824.5 257C822.3 228.3 799.7 199.7 795 171.2C790.3 142.7 803.7 114.3 816.7 85.8C829.7 57.3 842.3 28.7 848.7 14.3L855 0L900 0L900 14.3C900 28.7 900 57.3 900 85.8C900 114.3 900 142.7 900 171.2C900 199.7 900 228.3 900 257C900 285.7 900 314.3 900 343C900 371.7 900 400.3 900 428.8C900 457.3 900 485.7 900 514.2C900 542.7 900 571.3 900 585.7L900 600Z" fill="#c62368"></path></svg>
